<svg width="416" height="412" viewBox="0 0 416 412" fill="none" xmlns="http://www.w3.org/2000/svg">
<ellipse cx="210" cy="206" rx="205" ry="202" fill="#B58338"/>
<path d="M209.091 5.58862L209.091 406.667" stroke="#CE9642" stroke-width="10" stroke-linecap="round"/>
<path d="M5.01866 205.36L410.603 205.36" stroke="#CE9642" stroke-width="10" stroke-linecap="round"/>
<path d="M261.259 12.7599V397.959" stroke="#CE9642" stroke-width="10" stroke-linecap="round"/>
<path d="M312.916 35.2981V377.982" stroke="#CE9642" stroke-width="10" stroke-linecap="round"/>
<path d="M359.97 72.6912V336.491" stroke="#CE9642" stroke-width="10" stroke-linecap="round"/>
<path d="M155.388 12.7599L155.388 398.472" stroke="#CE9642" stroke-width="10" stroke-linecap="round"/>
<path d="M102.196 34.7859L102.196 372.86" stroke="#CE9642" stroke-width="10" stroke-linecap="round"/>
<path d="M46.4475 86.0092C46.4475 129.606 46.4475 173.203 46.4475 216.8C46.4475 234.329 46.4475 251.859 46.4475 269.389C46.4475 278.438 46.4475 287.488 46.4475 296.537C46.4475 299.876 46.4475 303.215 46.4475 306.554C46.4475 308.935 46.4475 311.316 46.4475 313.697C46.4475 316.471 45.7795 317.728 49.0047 318.051" stroke="#CE9642" stroke-width="10" stroke-linecap="round"/>
<path d="M70.4859 62.9587L358.947 62.9587" stroke="#CE9642" stroke-width="10" stroke-linecap="round"/>
<path d="M30.5923 108.035L401.398 108.035" stroke="#CE9642" stroke-width="10" stroke-linecap="round"/>
<path d="M12.6913 162.844L408.047 162.844" stroke="#CE9642" stroke-width="10" stroke-linecap="round"/>
<path d="M8.5997 244.802L407.024 244.802" stroke="#CE9642" stroke-width="10" stroke-linecap="round"/>
<path d="M23.4319 289.366L393.215 289.366" stroke="#CE9642" stroke-width="10" stroke-linecap="round"/>
<path d="M49.0047 328.808L369.688 328.808" stroke="#CE9642" stroke-width="10" stroke-linecap="round"/>
<path d="M88.8983 367.738H328.26" stroke="#CE9642" stroke-width="10" stroke-linecap="round"/>
</svg>
